<svg width="24" height="24" viewBox="0 0 24 24" fill="none" xmlns="http://www.w3.org/2000/svg">
<path d="M12.8476 7.54674C15.8943 7.54674 17.6226 9.56337 17.8739 11.9988L17.9508 11.9988C19.9115 11.9988 21.5009 13.5841 21.5009 15.5397C21.5009 17.4953 19.9115 19.0806 17.9508 19.0806H7.74435C5.7837 19.0806 4.19428 17.4953 4.19428 15.5397C4.19428 13.5841 5.7837 11.9988 7.74438 11.9988L7.82124 11.9988C8.07407 9.54736 9.80092 7.54674 12.8476 7.54674ZM12.8476 8.98673C10.8559 8.98673 9.11998 10.5572 9.11998 12.7264C9.11998 13.0701 8.8133 13.3398 8.46214 13.3398L7.79814 13.3397C6.58565 13.3397 5.60273 14.3025 5.60273 15.4902C5.60273 16.6778 6.58565 17.6406 7.79814 17.6406H17.897C19.1095 17.6406 20.0924 16.6778 20.0924 15.4902C20.0924 14.3025 19.1095 13.3397 17.8971 13.3397L17.233 13.3398C16.8819 13.3398 16.5752 13.0701 16.5752 12.7264C16.5752 10.5293 14.8392 8.98673 12.8476 8.98673ZM9.96135 4.65356C11.5159 4.65356 12.8932 5.43735 13.7114 6.63613C13.4324 6.60245 13.1441 6.5852 12.8476 6.5852C12.4686 6.5852 12.1032 6.61316 11.7527 6.66728C11.2448 6.30647 10.6247 6.09587 9.96135 6.09587C8.45482 6.09587 7.17104 7.18226 6.91388 8.65001L6.84418 9.04782C6.76358 9.50785 6.36407 9.84344 5.89704 9.84342L5.42488 9.84341C4.47852 9.84341 3.71135 10.6106 3.71135 11.5569C3.71135 12.0287 3.90199 12.4559 4.21044 12.7658C3.90765 13.1511 3.66746 13.588 3.50366 14.0611C2.7533 13.4846 2.26904 12.5773 2.26904 11.5569C2.26904 9.87411 3.58619 8.49893 5.2458 8.40609L5.49321 8.4011C5.86743 6.26521 7.73222 4.65356 9.96135 4.65356Z" fill="#212121"/>
</svg>
