<svg width="54" height="54" viewBox="0 0 54 54" fill="none" xmlns="http://www.w3.org/2000/svg">
<g clip-path="url(#clip0_1947_519)">
<path d="M45.8076 21.3461C45.8076 28.7806 39.7806 34.8076 32.3461 34.8076C24.9111 34.8076 18.8845 28.7806 18.8845 21.3461C18.8845 13.9115 24.9111 7.88452 32.3461 7.88452C39.7806 7.88452 45.8076 13.9115 45.8076 21.3461Z" fill="#FDD020"/>
<path d="M32.3463 5.96161C31.8148 5.96161 31.3848 5.53108 31.3848 5.00007V1.15392C31.3848 0.622915 31.8148 0.192383 32.3463 0.192383C32.8773 0.192383 33.3078 0.622915 33.3078 1.15392V5.00007C33.3078 5.53108 32.8773 5.96161 32.3463 5.96161Z" fill="#FDD020"/>
<path d="M52.5383 22.3076H48.6921C48.1607 22.3076 47.7306 21.8771 47.7306 21.3461C47.7306 20.8151 48.1607 20.3845 48.6921 20.3845H52.5383C53.0693 20.3845 53.4998 20.8151 53.4998 21.3461C53.4998 21.8771 53.0693 22.3076 52.5383 22.3076Z" fill="#FDD020"/>
<path d="M42.6875 33.1373C42.0325 33.1373 41.3787 33.2037 40.7368 33.3347C40.2527 30.8896 38.6877 28.8039 36.4904 27.675C34.2936 26.546 31.7062 26.4987 29.47 27.5462C27.4463 21.9046 21.2868 18.9917 15.7124 21.0398C10.138 23.0884 7.2599 29.3221 9.28361 34.9637C4.40056 35.12 0.543352 39.21 0.616376 44.1542C0.689839 49.0979 4.66686 53.0689 9.55253 53.0768H42.6875C48.1276 53.0768 52.5384 48.6133 52.5384 43.1071C52.5384 37.6009 48.1276 33.1373 42.6875 33.1373V33.1373Z" fill="#A3D4F7"/>
<path d="M19.8462 9.80758L16 5.96143Z" fill="#FDD020"/>
<path d="M19.8485 10.7692C19.5936 10.7692 19.35 10.668 19.17 10.4881L15.3316 6.64978C15.0819 6.40894 14.982 6.05191 15.0697 5.71643C15.1578 5.38095 15.4197 5.11904 15.7552 5.03142C16.0907 4.94333 16.4472 5.0436 16.6885 5.29287L20.527 9.13119C20.8011 9.40576 20.8831 9.81855 20.7346 10.177C20.586 10.5354 20.2365 10.7692 19.8485 10.7692Z" fill="#FDD020"/>
<path d="M43.8846 9.80758L47.7308 5.96143Z" fill="#FDD020"/>
<path d="M43.8826 10.7692C43.4942 10.7692 43.1446 10.5354 42.9961 10.177C42.8475 9.81855 42.9295 9.40576 43.2041 9.13119L47.0426 5.29287C47.2834 5.0436 47.64 4.94333 47.9755 5.03142C48.311 5.11904 48.5734 5.38095 48.661 5.71643C48.7486 6.05191 48.6488 6.40894 48.3995 6.64978L44.5611 10.4881C44.3811 10.668 44.137 10.7692 43.8826 10.7692Z" fill="#FDD020"/>
</g>
<defs>
<clipPath id="clip0_1947_519">
<rect width="52.8846" height="52.8846" fill="white" transform="translate(0.615356 0.192383)"/>
</clipPath>
</defs>
</svg>
