<svg width="34" height="37" viewBox="0 0 34 37" fill="none" xmlns="http://www.w3.org/2000/svg">
<g clip-path="url(#clip0_1947_579)">
<path d="M6.95168 3.77192C6.0616 3.77192 5.22988 4.16442 4.67541 4.84238L3.73426 5.98421C3.13601 6.71926 2.03436 6.84057 1.2756 6.24825C0.516849 5.65593 0.400117 4.58547 1.00566 3.84328L1.93222 2.70145C3.1506 1.21708 4.99642 0.346436 6.95168 0.346436H26.9711C28.9191 0.346436 30.7649 1.21708 31.9833 2.70145L32.9171 3.84328C33.5227 4.58547 33.3987 5.66307 32.6399 6.24825C31.8812 6.83344 30.7795 6.71926 30.1813 5.98421L29.2547 4.84238C28.7002 4.16442 27.8612 3.77192 26.9784 3.77192H18.7124V7.1974H21.6307C25.4974 7.1974 28.6346 10.2661 28.6346 14.0484V25.4666C28.6346 27.6504 27.5913 29.5915 25.9643 30.8475L30.743 35.5218C31.261 36.0285 30.8962 36.8849 30.1667 36.8849H27.2703C26.6501 36.8849 26.0592 36.6423 25.6214 36.2141L21.6307 32.3176H12.2921L8.30868 36.2141C7.87094 36.6423 7.27998 36.8849 6.65985 36.8849H3.75615C3.02658 36.8849 2.66179 36.0214 3.17979 35.5218L7.95848 30.8475C6.33154 29.5915 5.28825 27.6504 5.28825 25.4666V14.0484C5.28825 10.2661 8.42541 7.1974 12.2921 7.1974H15.2104V3.77192H6.95168ZM12.2921 11.7647C11.0008 11.7647 9.95751 12.7852 9.95751 14.0484V16.332C9.95751 17.5952 11.0008 18.6157 12.2921 18.6157H21.6307C22.922 18.6157 23.9653 17.5952 23.9653 16.332V14.0484C23.9653 12.7852 22.922 11.7647 21.6307 11.7647H12.2921ZM14.6268 25.4666C14.6268 24.861 14.3808 24.2801 13.943 23.8518C13.5051 23.4236 12.9113 23.183 12.2921 23.183C11.673 23.183 11.0791 23.4236 10.6413 23.8518C10.2035 24.2801 9.95751 24.861 9.95751 25.4666C9.95751 26.0723 10.2035 26.6531 10.6413 27.0814C11.0791 27.5097 11.673 27.7503 12.2921 27.7503C12.9113 27.7503 13.5051 27.5097 13.943 27.0814C14.3808 26.6531 14.6268 26.0723 14.6268 25.4666ZM21.6307 27.7503C22.2498 27.7503 22.8437 27.5097 23.2815 27.0814C23.7193 26.6531 23.9653 26.0723 23.9653 25.4666C23.9653 24.861 23.7193 24.2801 23.2815 23.8518C22.8437 23.4236 22.2498 23.183 21.6307 23.183C21.0115 23.183 20.4177 23.4236 19.9798 23.8518C19.542 24.2801 19.296 24.861 19.296 25.4666C19.296 26.0723 19.542 26.6531 19.9798 27.0814C20.4177 27.5097 21.0115 27.7503 21.6307 27.7503Z" fill="#699BF7"/>
</g>
<defs>
<clipPath id="clip0_1947_579">
<rect width="32.6923" height="36.5385" fill="white" transform="translate(0.615356 0.346436)"/>
</clipPath>
</defs>
</svg>
