<svg width="24" height="24" viewBox="0 0 24 24" fill="none" xmlns="http://www.w3.org/2000/svg">
<path d="M13.3094 7.5471C16.3561 7.5471 18.0844 9.56372 18.3358 11.9991L18.4126 11.9991C20.3733 11.9991 21.9627 13.5845 21.9627 15.54C21.9627 17.4956 20.3733 19.0809 18.4126 19.0809H8.20617C6.24552 19.0809 4.65609 17.4956 4.65609 15.54C4.65609 13.5845 6.24552 11.9991 8.20619 11.9991L8.28306 11.9991C8.53588 9.54772 10.2627 7.5471 13.3094 7.5471ZM13.3094 8.98709C11.3178 8.98709 9.5818 10.5575 9.5818 12.7267C9.5818 13.0704 9.27512 13.3401 8.92395 13.3401L8.25996 13.3401C7.04747 13.3401 6.06455 14.3029 6.06455 15.4905C6.06455 16.6782 7.04747 17.6409 8.25996 17.6409H18.3589C19.5713 17.6409 20.5543 16.6782 20.5543 15.4905C20.5543 14.3029 19.5713 13.3401 18.3589 13.3401L17.6949 13.3401C17.3437 13.3401 17.037 13.0704 17.037 12.7267C17.037 10.5297 15.3011 8.98709 13.3094 8.98709ZM5.00712 11.5427C5.14684 11.88 5.01165 12.2626 4.70473 12.4414L4.61684 12.4849L3.7262 12.8539C3.35823 13.0063 2.93638 12.8315 2.78397 12.4636C2.64425 12.1263 2.77944 11.7437 3.08636 11.5649L3.17425 11.5213L4.06489 11.1524C4.43286 11 4.85471 11.1747 5.00712 11.5427ZM11.2446 6.89539L11.0796 6.95076C10.5661 7.13218 10.0962 7.37775 9.67551 7.67968C9.1626 7.5125 8.58925 7.52052 8.05128 7.74336C6.8534 8.23953 6.28456 9.61283 6.78074 10.8107C6.83901 10.9514 6.90939 11.0834 6.99016 11.206C6.51687 11.3382 6.07364 11.5482 5.67618 11.8207C5.59078 11.6763 5.51463 11.523 5.44822 11.3627C4.64721 9.42885 5.56552 7.21185 7.49933 6.41084C8.79 5.87622 10.2068 6.1075 11.2446 6.89539ZM3.63525 6.92528L3.7367 6.95884L4.62734 7.32776C4.9953 7.48017 5.17004 7.90202 5.01762 8.26999C4.87906 8.6045 4.51783 8.77932 4.17684 8.69383L4.07539 8.66027L3.18475 8.29136C2.81679 8.13894 2.64205 7.71709 2.79446 7.34913C2.93302 7.01461 3.29426 6.83979 3.63525 6.92528ZM7.30374 4.05372L7.34727 4.14161L7.71618 5.03225C7.8686 5.40021 7.69386 5.82207 7.32589 5.97448C6.98859 6.1142 6.60601 5.97901 6.42719 5.67208L6.38366 5.5842L6.01475 4.69356C5.86233 4.32559 6.03707 3.90374 6.40503 3.75132C6.74233 3.61161 7.12492 3.74679 7.30374 4.05372ZM11.4896 3.74747C11.8242 3.88603 11.999 4.24726 11.9135 4.58825L11.8799 4.6897L11.511 5.58034C11.3586 5.9483 10.9367 6.12304 10.5688 5.97062C10.2343 5.83206 10.0594 5.47083 10.1449 5.12984L10.1785 5.02839L10.5474 4.13775C10.6998 3.76979 11.1217 3.59505 11.4896 3.74747Z" fill="#212121"/>
</svg>
