<svg width="24" height="24" viewBox="0 0 24 24" fill="none" xmlns="http://www.w3.org/2000/svg">
<path d="M10.8363 3.03495C11.642 2.37279 12.82 2.37279 13.6257 3.03495L20.1161 8.3692C20.6035 8.76983 20.8848 9.35965 20.8848 9.98112V19.1676C20.8848 20.0733 20.1315 20.8076 19.2021 20.8076H15.8368C14.9074 20.8076 14.1541 20.0733 14.1541 19.1676V14.0134C14.1541 13.884 14.0464 13.7791 13.9137 13.7791H10.5483C10.4155 13.7791 10.3079 13.884 10.3079 14.0134V19.1676C10.3079 20.0733 9.55455 20.8076 8.62522 20.8076H5.25984C4.33052 20.8076 3.57715 20.0733 3.57715 19.1676V9.98112C3.57715 9.35965 3.85845 8.76983 4.34592 8.3692L10.8363 3.03495ZM12.6959 4.10957C12.4273 3.88884 12.0347 3.88884 11.7661 4.10957L5.27571 9.44381C5.11322 9.57735 5.01946 9.77396 5.01946 9.98112V19.1676C5.01946 19.297 5.12708 19.4019 5.25984 19.4019H8.62522C8.75798 19.4019 8.86561 19.297 8.86561 19.1676V14.0134C8.86561 13.1076 9.61897 12.3734 10.5483 12.3734H13.9137C14.843 12.3734 15.5964 13.1076 15.5964 14.0134V19.1676C15.5964 19.297 15.704 19.4019 15.8368 19.4019H19.2021C19.3349 19.4019 19.4425 19.297 19.4425 19.1676V9.98112C19.4425 9.77396 19.3488 9.57735 19.1863 9.44381L12.6959 4.10957Z" fill="#699BF7"/>
</svg>
