<svg width="25" height="25" viewBox="0 0 25 25" fill="none" xmlns="http://www.w3.org/2000/svg">
<path d="M12.7115 3.08057C7.32693 3.08057 2.94592 7.46158 2.94592 12.8462C2.94592 18.2308 7.32693 22.6118 12.7115 22.6118C18.0962 22.6118 22.4772 18.2308 22.4772 12.8462C22.4772 7.46158 18.0962 3.08057 12.7115 3.08057ZM12.7115 4.58297C17.2841 4.58297 20.9748 8.27363 20.9748 12.8462C20.9748 14.894 20.2311 16.7569 19.0029 18.1985L7.47567 6.43844C8.95313 5.23174 10.8039 4.57586 12.7115 4.58297ZM6.42023 7.49388L17.9474 19.2539C16.47 20.4606 14.6192 21.1165 12.7115 21.1094C8.13898 21.1094 4.44833 17.4188 4.44833 12.8462C4.44833 10.7984 5.19202 8.93543 6.42023 7.49388Z" fill="#699BF7"/>
</svg>
