<svg width="25" height="25" viewBox="0 0 25 25" fill="none" xmlns="http://www.w3.org/2000/svg">
<path d="M13.7132 3.75464C11.3224 3.75464 9.02957 4.70437 7.33904 6.3949C5.64851 8.08543 4.69878 10.3783 4.69878 12.7691H1.69397L5.5902 16.6653L5.66032 16.8055L9.70679 12.7691H6.70198C6.70198 8.89286 9.837 5.75784 13.7132 5.75784C17.5894 5.75784 20.7244 8.89286 20.7244 12.7691C20.7244 16.6453 17.5894 19.7803 13.7132 19.7803C11.7801 19.7803 10.0273 18.989 8.76528 17.717L7.34301 19.1393C8.17776 19.9786 9.17042 20.6444 10.2637 21.0982C11.3571 21.5521 12.5294 21.785 13.7132 21.7835C16.104 21.7835 18.3968 20.8338 20.0874 19.1432C21.7779 17.4527 22.7276 15.1598 22.7276 12.7691C22.7276 10.3783 21.7779 8.08543 20.0874 6.3949C18.3968 4.70437 16.104 3.75464 13.7132 3.75464ZM12.7116 8.76265V13.7707L16.9684 16.2947L17.7396 15.0127L14.214 12.9193V8.76265H12.7116Z" fill="#699BF7"/>
</svg>
