<svg width="469" height="307" viewBox="0 0 469 307" fill="none" xmlns="http://www.w3.org/2000/svg">
<g clip-path="url(#clip0_2052_5)">
<path d="M274.528 57.6232C333.502 42.2747 394.733 37.4606 455.388 43.4033C442.579 40.6345 429.661 38.5553 416.579 37.7936C414.372 33.8154 411.938 29.6981 408.003 27.3822C404.069 25.0662 398.247 25.3236 395.756 29.1474C396.078 26.3759 395.831 23.5681 395.032 20.8945C394.233 18.221 392.897 15.7374 391.107 13.5948C389.316 11.4522 387.108 9.69517 384.616 8.43048C382.124 7.16579 379.401 6.41983 376.611 6.2379C373.822 6.05598 371.024 6.44188 368.388 7.37217C365.753 8.30247 363.334 9.75773 361.28 11.6496C359.225 13.5414 357.577 15.8304 356.436 18.3774C355.295 20.9245 354.684 23.6764 354.642 26.4661C349.97 18.5456 342.89 11.6801 334.123 8.78263C325.357 5.88514 314.734 7.79964 308.856 14.8607C303.457 21.3196 302.884 30.4495 303.152 38.8641C299.661 37.7319 294.866 39.7905 293.257 43.0842C292.638 44.3554 292.365 45.8119 291.519 46.9544C290.756 47.9837 289.606 48.6528 288.487 49.291C283.619 52.0598 279.385 54.8544 274.528 57.6232Z" fill="white"/>
<path d="M88.9041 135.159C132.902 115.065 179.214 100.464 226.794 91.6862C216.996 92.7155 207.317 93.3434 197.499 94.3676C194.023 87.1624 190.279 79.1853 183.158 75.4644C176.454 71.9596 167.853 72.8911 161.727 77.3171C155.601 81.7431 152.017 89.2365 151.816 96.771C150.062 89.6533 143.451 83.9458 136.191 82.8445C128.93 81.7431 121.108 85.6596 117.9 92.2523C115.652 96.8739 115.657 102.252 115.703 107.368C114.529 107.61 113.414 108.081 112.422 108.755C111.431 109.429 110.583 110.292 109.928 111.294C109.279 112.275 108.834 113.376 108.621 114.532C108.407 115.687 108.429 116.874 108.685 118.021C101.528 124.017 96.0667 129.163 88.9041 135.159Z" fill="white"/>
<path d="M52.9872 299.509C76.6814 284.133 104.164 271.564 130.032 259.968C156.072 248.299 183.754 240.773 211.303 233.241C202.876 233.241 194.688 233.804 186.466 235.71C181.481 225.709 171.751 218.792 160.791 216.443C156.238 215.47 151.353 215.245 147.046 216.998C143.258 218.541 140.221 221.486 137.549 224.577C132.365 230.574 127.971 238.232 129.347 246.029C128.603 245.148 127.021 245.267 125.865 245.162C124.706 245.102 123.546 245.229 122.428 245.539C120.704 245.859 119.073 246.56 117.656 247.591C116.959 248.116 116.41 248.81 116.061 249.608C115.712 250.405 115.574 251.279 115.662 252.144C112.339 246.724 103.838 244.275 97.5377 245.168C91.237 246.062 85.6806 250.463 82.9623 256.222C80.2439 261.98 80.2572 268.797 82.5302 274.708C72.5208 281.221 62.3453 292.115 52.9872 299.509Z" fill="white"/>
<path d="M601.099 378.327C596.013 378.471 593.069 378.672 588.008 378.672H180.572C184.507 364.405 189.518 348.425 193.441 334.159C187.82 324.54 185.296 296.59 209.336 277.336C210.188 276.642 211.085 275.973 212.013 275.314C212.323 275.07 212.647 274.839 212.986 274.619C212.986 274.444 212.986 274.274 213.037 274.104C213.649 268.205 214.959 262.366 216.947 256.668C212.973 251.48 211.708 245.819 212.013 239.731C212.91 223.607 219.978 208.107 232.239 195.378C232.239 195.115 232.239 194.863 232.239 194.591C232.684 183.901 234.038 173.274 237.694 162.991C237.694 162.991 233.587 131.237 265.518 94.5729C295.726 59.9058 373.036 6.64442 381.276 1.00382L381.912 0.556066L381.982 0.514893C387.005 0.514893 390.591 2.61982 393.128 6.11946L401.114 9.32576L408.743 12.3776C408.871 14.1275 409.843 15.6869 411.045 17.1742C411.681 17.9513 412.317 18.6873 413.016 19.4181C413.054 19.4593 413.08 19.5056 413.118 19.5468C421.975 29.3252 427.844 40.7556 430.959 52.6235C431.716 55.449 432.193 58.2281 434.253 60.6161C434.545 60.4205 435.028 60.3793 435.34 60.1889V60.2301C437.612 58.7941 440.18 57.6947 442.925 56.9826L443.224 56.9003C450.43 60.544 457.486 64.3645 464.391 68.3616C467.761 75.469 466.177 83.2248 465.548 90.8108C464.912 98.5305 465.637 106.312 466.336 114.047C466.527 116.029 466.889 118.283 468.88 119.436C468.918 119.57 468.967 119.703 469.026 119.832C469.166 120.306 469.318 120.779 469.49 121.237C473.686 133.784 478.296 146.225 483.319 158.56C483.758 159.661 484.209 160.757 484.68 161.859C484.759 161.843 484.84 161.832 484.921 161.828C500.436 159.584 515.441 153.99 529.842 148.761C546.234 159.198 558.944 170.999 572.087 184.102C574.693 183.829 577.809 183.829 579.882 185.131C581.153 185.939 581.878 187.19 582.902 188.193C583.719 188.981 584.732 189.62 585.875 190.069C587.017 190.519 588.264 190.769 589.534 190.803C593.08 190.953 596.596 191.417 600.018 192.187L600.107 209.685L601.099 378.327Z" fill="#FEC268"/>
<g style="mix-blend-mode:multiply">
<path d="M572.131 184.097C558.995 170.984 546.272 159.183 529.881 148.756C515.492 153.98 500.48 159.564 484.96 161.818C484.877 161.818 484.794 161.818 484.718 161.849C478.949 147.974 473.731 133.967 469.064 119.827C469.019 119.694 468.969 119.565 468.93 119.431C466.921 118.278 466.552 116.019 466.387 114.037C465.675 106.318 464.957 98.5464 465.592 90.8009C466.228 83.22 467.799 75.4591 464.435 68.3569C457.526 64.3734 450.464 60.5513 443.25 56.8904L442.951 56.9727C441.329 63.5346 439.873 70.0604 437.343 76.4369C441.158 81.3416 440.236 87.7233 442.398 93.2661C443.784 96.7914 446.429 99.9566 447.827 103.466C449.438 107.56 449.319 111.971 447.49 116.003C447.847 116.189 448.209 116.353 448.565 116.518L447.859 116.374C449.582 117.743 450.263 119.41 451.585 121.052C452.977 122.67 453.682 124.61 453.594 126.58C453.486 127.609 453.098 128.576 453.041 129.601C453.024 130.821 453.238 132.036 453.677 133.203C457.17 144.268 460.656 155.333 464.136 166.398L466.413 171.684L530.586 158.22L569.575 188.842L572.156 184.097H572.131Z" fill="#C3A178"/>
</g>
<g style="mix-blend-mode:multiply">
<path d="M461.854 99.4372C454.491 95.1553 447.408 90.7756 441.247 85.4026C392.791 102.268 344.086 120.157 302.415 146.338C260.743 172.518 204.135 221.76 216.96 256.659C212.98 251.476 211.708 245.815 212.026 239.721C212.913 223.598 219.98 208.098 232.245 195.374C232.245 195.106 232.245 194.859 232.245 194.586C261.111 161.71 319.83 120.42 437.12 76.7925C445.926 82.4022 454.287 88.1406 461.816 94.8053C461.79 96.303 461.854 97.955 461.854 99.4372Z" fill="#C3A178"/>
</g>
<g style="mix-blend-mode:multiply">
<path d="M378.097 192.233V154.808C378.097 154.808 376.189 134.469 397.807 126.137C419.425 117.804 418.23 139.579 418.23 139.579V177.972L378.097 192.233Z" fill="#C3A178"/>
</g>
<g style="mix-blend-mode:multiply">
<path d="M398.195 185.096V154.809C398.195 154.809 396.491 136.6 414.637 127.584C411.808 124.398 406.779 122.684 397.814 126.137C376.196 134.47 378.103 154.809 378.103 154.809V192.234L398.195 185.096Z" fill="#C3A178"/>
</g>
<g style="mix-blend-mode:multiply">
<path d="M351.055 200.463V160.46C351.055 160.46 350.826 145.473 339.222 150.995C325.578 157.49 325.234 177.407 325.234 177.407V211.631L351.055 200.463Z" fill="#C3A178"/>
</g>
<g style="mix-blend-mode:multiply">
<path d="M339.362 179.522C339.362 179.522 339.661 162.94 350.082 155.107C348.811 151.453 345.924 147.804 339.222 150.99C325.578 157.485 325.234 177.402 325.234 177.402V211.631L339.369 205.522L339.362 179.522Z" fill="#C3A178"/>
</g>
<g style="mix-blend-mode:multiply">
<path d="M306.14 217.658V183.655C306.14 183.655 305.225 171.051 293.055 176.666C280.886 182.281 281.928 196.444 281.928 196.444V231.852L306.14 217.658Z" fill="#C3A178"/>
</g>
<g style="mix-blend-mode:multiply">
<path d="M302.141 219.994V200.36C302.141 200.36 301.582 192.702 306.14 186.413V183.65C306.14 183.65 305.225 171.046 293.055 176.661C280.886 182.275 281.928 196.439 281.928 196.439V231.847L302.141 219.994Z" fill="#C3A178"/>
</g>
<g style="mix-blend-mode:multiply">
<path d="M268.824 238.104V209.186C268.824 209.186 269.085 198.167 260.558 200.499C252.032 202.83 252.184 219.139 252.184 219.139V247.96L268.824 238.104Z" fill="#C3A178"/>
</g>
<g style="mix-blend-mode:multiply">
<path d="M243.041 251.661V232.279C243.041 232.279 242.647 224.755 237.675 225.712C232.703 226.669 233.224 237.997 233.224 237.997V259.185L243.041 251.661Z" fill="#C3A178"/>
</g>
<g style="mix-blend-mode:multiply">
<path d="M499.285 246.684V313.208C491.591 313.651 475.282 315.149 461.281 316.512C448.12 317.778 436.993 318.926 436.993 318.926V259.18C436.993 259.18 436.459 227.822 468.663 225.625C472.943 225.264 477.267 225.486 481.456 226.283C500.397 230.159 499.285 246.684 499.285 246.684Z" fill="#C3A178"/>
</g>
<g style="mix-blend-mode:multiply">
<path d="M404.541 264.054V321.696L379.178 326.219L358.195 329.961V272.201C358.195 272.201 358.984 248.378 382.02 245.841C387.977 245.182 392.352 246.083 395.575 247.771C404.827 252.634 404.541 264.054 404.541 264.054Z" fill="#C3A178"/>
</g>
<g style="mix-blend-mode:multiply">
<path d="M330.206 283.544V331.854L323.079 333.604L297.48 339.903V295.201C297.48 295.201 295.389 265.351 314.501 262.999C320.497 262.268 324.28 264.028 326.627 266.776C331.802 272.782 330.206 283.544 330.206 283.544Z" fill="#C3A178"/>
</g>
<g style="mix-blend-mode:multiply">
<path d="M281.61 343.717V298.608C281.61 298.608 284.49 281.238 271.666 282.932C258.841 284.625 259.363 304.753 259.363 304.753V350.835L281.61 343.717Z" fill="#C3A178"/>
</g>
<g style="mix-blend-mode:multiply">
<path d="M278.075 344.844V303.893C278.075 303.893 277.865 295.474 281.178 289.066C280.103 285.351 277.528 282.139 271.641 282.891C258.816 284.584 259.337 304.712 259.337 304.712V350.794L278.075 344.844Z" fill="#C3A178"/>
</g>
<g style="mix-blend-mode:multiply">
<path d="M239.379 354.519V315.112C239.379 315.112 239.608 297.316 233.211 298.587C226.815 299.858 227.076 316.806 227.076 316.806V358.333L239.379 354.519Z" fill="#C3A178"/>
</g>
<g style="mix-blend-mode:multiply">
<path d="M237.936 354.967V317.33C237.926 314.004 238.232 310.681 238.851 307.392C238.215 302.761 236.664 297.902 233.211 298.587C226.815 299.858 227.076 316.805 227.076 316.805V358.333L237.936 354.967Z" fill="#C3A178"/>
</g>
<g style="mix-blend-mode:multiply">
<path d="M546.603 190.808L546.304 200.849L524.934 184.818C464.988 194.133 342.853 223.494 266.084 254.311C178.658 289.411 193.441 334.16 193.441 334.16C187.82 324.546 185.334 296.549 209.343 277.337C210.214 276.647 211.104 275.978 212.02 275.314C212.337 275.073 212.655 274.831 212.992 274.609C234.928 258.753 268.627 244.013 306.141 227.822C377.836 196.856 528.348 171.684 528.348 171.684C528.348 171.684 545.21 189.589 546.603 190.808Z" fill="#C3A178"/>
</g>
<g style="mix-blend-mode:multiply">
<path d="M502.686 200.993C501.987 201.132 426.61 217.375 426.61 217.375V258.619H428.517V226.134L502.674 211.302L502.686 200.993Z" fill="#C3A178"/>
</g>
<g style="mix-blend-mode:multiply">
<path d="M412.126 221.755V230.653L355.938 244.914V261.831H353.884V236.515L412.126 221.755Z" fill="#C3A178"/>
</g>
<g style="mix-blend-mode:multiply">
<path d="M336.043 241.789L292.419 256.498V280.049H294.861V260.919L336.043 249.329V241.789Z" fill="#C3A178"/>
</g>
<g style="mix-blend-mode:multiply">
<path d="M246.443 277.718V283.601L226.421 294.933V289.53L246.443 277.718Z" fill="#C3A178"/>
</g>
<g style="mix-blend-mode:multiply">
<path d="M384.906 13.1448C244.961 90.5434 237.726 162.976 237.726 162.976C237.726 162.976 233.618 131.222 265.549 94.568C295.757 59.8958 373.786 6.14033 382.026 0.504883L384.906 13.1448Z" fill="#C3A178"/>
</g>
<g style="mix-blend-mode:multiply">
<path d="M252.547 175.734L251.676 175.296C251.784 175.158 262.79 161.046 291.802 139.492C318.552 119.616 366.544 89.1435 443.275 56.813L443.745 57.5489C297.137 119.312 252.973 175.178 252.547 175.734Z" fill="#C3A178"/>
</g>
<g style="mix-blend-mode:multiply">
<path d="M308.124 101.418L320.167 93.2252V75.2895C320.167 75.2895 319.849 69.6593 314.145 71.7539C308.124 73.9669 308.124 80.2354 308.124 80.2354V101.418Z" fill="#C3A178"/>
</g>
<g style="mix-blend-mode:multiply">
<path d="M481.456 226.283C475.098 228.213 468.93 230.915 465.561 235.547C462.42 239.896 462.267 245.197 462.197 250.235C461.896 272.321 461.595 294.406 461.294 316.492C448.133 317.758 437.006 318.905 437.006 318.905V259.18C437.006 259.18 436.472 227.822 468.676 225.624C472.952 225.265 477.271 225.487 481.456 226.283Z" fill="#C3A178"/>
</g>
<g style="mix-blend-mode:multiply">
<path d="M395.582 247.771C393.112 248.484 390.946 249.754 389.338 251.43C386.833 254.003 385.587 257.24 384.639 260.442C382.058 269.273 381.511 278.398 381.021 287.471C380.322 300.379 379.707 313.29 379.177 326.204L358.195 329.946V272.201C358.195 272.201 358.984 248.378 382.02 245.841C387.984 245.182 392.358 246.083 395.582 247.771Z" fill="#C3A178"/>
</g>
<g style="mix-blend-mode:multiply">
<path d="M320.764 277.178C319.582 282.103 319.944 287.172 320.294 292.164C321.222 305.236 322.15 318.303 323.079 331.365C323.155 332.11 323.155 332.859 323.079 333.604L297.48 339.903V295.201C297.48 295.201 295.389 265.351 314.501 262.999C320.497 262.268 324.28 264.028 326.627 266.776C325.8 267.806 324.783 268.758 324.083 269.72C322.486 272.044 321.365 274.563 320.764 277.178V277.178Z" fill="#C3A178"/>
</g>
<g style="mix-blend-mode:multiply">
<path d="M435.365 60.2255C435.142 60.6891 434.8 61.1092 434.362 61.4578C433.923 61.8065 433.399 62.0759 432.822 62.2481C431.663 62.5878 430.452 62.7957 429.223 62.8657C426.543 58.2371 423.444 53.775 419.953 49.5156C419.144 48.3946 418.075 47.4107 416.805 46.6181C413.906 45.033 409.926 45.5579 406.753 44.3639C407.141 39.799 406.009 35.2083 404.159 30.8852C403.294 28.8883 402.283 26.9275 401.196 25.0027C400.662 24.0557 400.111 23.1191 399.543 22.1927C399.155 21.5494 397.686 19.9745 397.763 19.2952C397.896 17.9262 402.557 18.8063 403.924 18.8783L411.897 19.3364C412.278 19.3364 412.654 19.3775 413.022 19.4187C413.067 19.4599 413.099 19.501 413.137 19.5422C421.981 29.3206 427.85 40.7614 430.972 52.619C431.722 55.4547 432.37 58.4294 434.431 60.8174C434.742 60.6064 435.047 60.4108 435.365 60.2255Z" fill="#C3A178"/>
</g>
<g style="mix-blend-mode:multiply">
<path d="M385.199 14.7766C380.754 16.7126 376.437 18.8359 372.266 21.1377C368.267 23.3559 364 25.4351 360.548 28.2039C361.319 27.8863 362.147 27.6709 363.002 27.5657C363.431 27.5166 363.868 27.5507 364.277 27.6652C364.686 27.7798 365.055 27.9715 365.355 28.2245C365.596 28.4561 365.762 28.7392 365.991 28.9656C366.932 29.7582 368.566 29.3464 369.805 28.8833C369.972 29.9582 370.634 30.9428 371.658 31.6402C372.682 32.3376 373.994 32.6966 375.331 32.6454C376.863 32.5373 378.51 31.8991 379.832 32.5373C380.767 32.9902 381.104 33.9269 381.905 34.5444C383.609 35.9083 385.51 34.9562 387.481 35.2495C389.872 35.6098 390.165 37.8485 389.936 39.4285C389.815 40.2262 389.681 41.0908 390.177 41.7856C390.621 42.2664 391.163 42.6824 391.78 43.0156C393.948 44.4978 395.035 47.2306 395.906 49.3356C396.981 51.9088 397.864 54.5541 398.805 57.1737C400.656 62.3203 402.748 67.5285 406.753 71.8671C400.751 52.8558 392.612 33.4637 385.199 14.7766Z" fill="#FEF1CB"/>
</g>
<g style="mix-blend-mode:multiply">
<path d="M281.884 260.029L253.246 274.965V280.049V300.846L254.658 300.141L254.988 279.257L281.884 267.029V260.029Z" fill="#C3A178"/>
</g>
<g style="mix-blend-mode:multiply">
<path d="M408.247 18.4664C402.321 17.9105 396.65 16.2636 391.042 14.6219C389.045 14.0455 387.055 13.4622 385.071 12.8721C384.194 8.80118 383.081 4.60162 381.962 0.520421L382.032 0.479248C387.055 0.479248 390.641 2.58418 393.178 6.08382L401.164 9.2901C401.236 9.48788 401.327 9.68065 401.438 9.86652C401.867 10.3428 402.389 10.7599 402.983 11.1017C403.278 11.2765 403.511 11.5113 403.658 11.7824C403.806 12.0535 403.862 12.3513 403.822 12.6456C403.694 12.5864 403.552 12.5515 403.405 12.5437C403.258 12.5359 403.111 12.5553 402.975 12.6005C402.839 12.6456 402.717 12.7154 402.619 12.8044C402.521 12.8934 402.45 12.9993 402.41 13.114C402.354 13.3499 402.384 13.5941 402.497 13.8164C402.61 14.0386 402.801 14.2292 403.046 14.3646C403.546 14.6321 404.121 14.7932 404.718 14.8329C405.306 14.8804 405.886 14.9787 406.448 15.1263C406.111 16.382 407.236 17.5348 408.247 18.4664Z" fill="#FEE1B4"/>
</g>
<g style="mix-blend-mode:multiply">
<path d="M339.044 137.758C320.342 116.322 304.415 93.3848 291.516 69.3088C281.381 78.1609 272.289 86.807 265.549 94.5577C233.618 131.211 237.726 162.965 237.726 162.965C234.076 173.258 232.715 183.876 232.27 194.575C232.27 194.838 232.27 195.09 232.27 195.363C219.998 208.089 212.926 223.593 212.038 239.721C211.72 245.814 212.992 251.475 216.972 256.658C214.975 262.356 213.664 268.197 213.056 274.1C213.056 274.269 213.056 274.434 213.005 274.614C212.674 274.841 212.369 275.072 212.032 275.314C211.099 275.966 210.207 276.64 209.355 277.337C185.334 296.549 187.82 324.546 193.44 334.16C189.517 348.426 184.501 364.406 180.578 378.672H588.007C593.094 378.672 596.038 378.471 601.099 378.327L600.584 284.516C533.187 270.06 469.725 243.421 416.672 206.762C387.356 186.46 361.279 163.28 339.044 137.758V137.758Z" fill="#FDF1DA"/>
</g>
</g>
<defs>
<clipPath id="clip0_2052_5">
<rect x="0.83606" y="0.570068" width="467.499" height="306.388" rx="14.9004" fill="white"/>
</clipPath>
</defs>
</svg>
