<svg width="25" height="25" viewBox="0 0 25 25" fill="none" xmlns="http://www.w3.org/2000/svg">
<path d="M11.111 3.69678C9.65228 3.69678 8.22632 4.12934 7.01344 4.93976C5.80057 5.75017 4.85524 6.90205 4.29702 8.24973C3.73879 9.59741 3.59273 11.0804 3.87732 12.511C4.1619 13.9417 4.86433 15.2559 5.8958 16.2874C6.92727 17.3188 8.24144 18.0213 9.67213 18.3058C11.1028 18.5904 12.5858 18.4444 13.9334 17.8861C15.2811 17.3279 16.433 16.3826 17.2434 15.1697C18.0538 13.9568 18.4864 12.5309 18.4864 11.0722C18.4863 9.11613 17.7092 7.24025 16.326 5.85712C14.9429 4.47399 13.067 3.6969 11.111 3.69678Z" stroke="black" stroke-width="1.5024" stroke-miterlimit="10"/>
<path d="M16.6135 16.575L21.7644 21.7258" stroke="black" stroke-width="1.5024" stroke-miterlimit="10" stroke-linecap="round"/>
</svg>
