<svg width="25" height="25" viewBox="0 0 25 25" fill="none" xmlns="http://www.w3.org/2000/svg">
<path d="M16.7181 21.7072L16.4176 20.2048C16.2173 20.1213 16.0293 20.0335 15.8537 19.9413C15.6781 19.8492 15.4988 19.7367 15.3159 19.6038L13.8635 20.0545L12.8619 18.3518L14.0138 17.3502C13.9804 17.1165 13.9637 16.8995 13.9637 16.6992C13.9637 16.4988 13.9804 16.2818 14.0138 16.0481L12.8619 15.0465L13.8635 13.3438L15.3159 13.7945C15.4995 13.661 15.6791 13.5485 15.8547 13.457C16.0303 13.3655 16.218 13.2777 16.4176 13.1936L16.7181 11.6911H18.7213L19.0218 13.1936C19.2221 13.277 19.4101 13.3688 19.5857 13.469C19.7613 13.5692 19.9406 13.6944 20.1236 13.8446L21.5759 13.3438L22.5775 15.0966L21.4256 16.0982C21.459 16.2985 21.4757 16.5072 21.4757 16.7242C21.4757 16.9412 21.459 17.1499 21.4256 17.3502L22.5775 18.3518L21.5759 20.0545L20.1236 19.6038C19.9399 19.7374 19.7606 19.8502 19.5857 19.9424C19.4108 20.0345 19.2228 20.122 19.0218 20.2048L18.7213 21.7072H16.7181ZM2.69568 20.7056V17.9011C2.69568 17.3502 2.83757 16.8327 3.12136 16.3486C3.40515 15.8645 3.79744 15.4972 4.29824 15.2468C5.1496 14.8128 6.10947 14.4456 7.17785 14.1451C8.24623 13.8446 9.42311 13.6944 10.7085 13.6944H11.0591C11.1592 13.6944 11.2594 13.711 11.3595 13.7444C10.8754 14.9464 10.6751 16.1399 10.7586 17.3252C10.842 18.5104 11.2427 19.6372 11.9605 20.7056H2.69568ZM17.7197 18.7024C18.2706 18.7024 18.7424 18.5061 19.135 18.1134C19.5276 17.7208 19.7236 17.2494 19.7229 16.6992C19.7229 16.1483 19.5266 15.6765 19.134 15.2839C18.7414 14.8913 18.2699 14.6953 17.7197 14.696C17.1688 14.696 16.6971 14.8923 16.3045 15.2849C15.9118 15.6775 15.7158 16.1489 15.7165 16.6992C15.7165 17.25 15.9128 17.7218 16.3055 18.1144C16.6981 18.5071 17.1695 18.703 17.7197 18.7024ZM10.7085 12.6928C9.60674 12.6928 8.66356 12.3005 7.87897 11.5159C7.09438 10.7313 6.70209 9.7881 6.70209 8.68634C6.70209 7.58458 7.09438 6.6414 7.87897 5.85681C8.66356 5.07223 9.60674 4.67993 10.7085 4.67993C11.8103 4.67993 12.7534 5.07223 13.538 5.85681C14.3226 6.6414 14.7149 7.58458 14.7149 8.68634C14.7149 9.7881 14.3226 10.7313 13.538 11.5159C12.7534 12.3005 11.8103 12.6928 10.7085 12.6928Z" fill="#699BF7"/>
</svg>
