<svg width="25" height="25" viewBox="0 0 25 25" fill="none" xmlns="http://www.w3.org/2000/svg">
<path d="M7.31827 21.3223C6.85753 21.3223 6.47292 21.1681 6.16443 20.8596C5.85526 20.5504 5.70068 20.1655 5.70068 19.7047V4.91105C5.70068 4.45031 5.85526 4.06569 6.16443 3.7572C6.47292 3.44804 6.85753 3.29346 7.31827 3.29346H18.1055C18.5663 3.29346 18.9509 3.44804 19.2594 3.7572C19.5685 4.06569 19.7231 4.45031 19.7231 4.91105V19.7047C19.7231 20.1655 19.5689 20.5501 19.2604 20.8586C18.9512 21.1677 18.5663 21.3223 18.1055 21.3223H7.31827ZM7.31827 20.3207H18.1055C18.2591 20.3207 18.4003 20.2566 18.5292 20.1284C18.6574 19.9995 18.7215 19.8583 18.7215 19.7047V4.91105C18.7215 4.75747 18.6574 4.61624 18.5292 4.48737C18.4003 4.35916 18.2591 4.29506 18.1055 4.29506H16.7183V10.4199L14.7151 9.22595L12.7119 10.4199V4.29506H7.31827C7.16469 4.29506 7.02347 4.35916 6.89459 4.48737C6.76639 4.61624 6.70229 4.75747 6.70229 4.91105V19.7047C6.70229 19.8583 6.76639 19.9995 6.89459 20.1284C7.02347 20.2566 7.16469 20.3207 7.31827 20.3207Z" fill="#699BF7"/>
</svg>
