<svg width="23" height="25" viewBox="0 0 23 25" fill="none" xmlns="http://www.w3.org/2000/svg">
<path fill-rule="evenodd" clip-rule="evenodd" d="M11.43 17.2194C12.4685 17.2194 13.3104 18.1162 13.3104 19.2226C13.3104 20.3289 12.4685 21.2258 11.43 21.2258C10.3915 21.2258 9.54959 20.3289 9.54959 19.2226C9.54959 18.1162 10.3915 17.2194 11.43 17.2194ZM11.43 10.2085C12.4685 10.2085 13.3104 11.1054 13.3104 12.2117C13.3104 13.318 12.4685 14.2149 11.43 14.2149C10.3915 14.2149 9.54959 13.318 9.54959 12.2117C9.54959 11.1054 10.3915 10.2085 11.43 10.2085ZM11.43 3.19702C12.4685 3.19702 13.3104 4.09389 13.3104 5.20023C13.3104 6.30657 12.4685 7.20343 11.43 7.20343C10.3914 7.20343 9.54956 6.30657 9.54956 5.20023C9.54956 4.09389 10.3914 3.19702 11.43 3.19702Z" fill="#6B7178"/>
</svg>
