<svg width="24" height="24" viewBox="0 0 24 24" fill="none" xmlns="http://www.w3.org/2000/svg">
<path d="M10.7925 15.9499L12.9425 13.5579C13.2087 13.2617 13.6647 13.2374 13.9609 13.5036C14.2302 13.7457 14.2747 14.1445 14.0806 14.4376L14.0152 14.5221L12.9467 15.7109H15.1356C15.7061 15.7109 16.0378 16.3335 15.7559 16.8007L15.6997 16.8814L12.6117 20.7578C12.3635 21.0693 11.9098 21.1207 11.5983 20.8725C11.3151 20.6469 11.2469 20.2514 11.4233 19.9473L11.4835 19.8591L13.6391 17.1532H11.3288C10.7394 17.1532 10.4128 16.494 10.7298 16.0297L10.7925 15.9499L12.9425 13.5579L10.7925 15.9499ZM13.2322 5.62389C16.2789 5.62389 18.0072 7.64052 18.2586 10.0759L18.3355 10.0759C20.2961 10.0759 21.8855 11.6612 21.8855 13.6168C21.8855 15.5724 20.2961 17.1577 18.3355 17.1577L16.6161 17.1587C16.7549 16.9533 16.8358 16.7057 16.8358 16.4392C16.8358 16.1715 16.7541 15.9229 16.6142 15.7169L18.2817 15.7177C19.4942 15.7177 20.4771 14.755 20.4771 13.5673C20.4771 12.3797 19.4942 11.4169 18.2817 11.4169L17.6177 11.4169C17.2665 11.4169 16.9598 11.1472 16.9598 10.8035C16.9598 8.60648 15.2239 7.06388 13.2322 7.06388C11.2406 7.06388 9.50463 8.6343 9.50463 10.8035C9.50463 11.1472 9.19794 11.4169 8.84678 11.4169L8.18278 11.4169C6.97029 11.4169 5.98737 12.3797 5.98737 13.5673C5.98737 14.755 6.97029 15.7177 8.18278 15.7177L9.87673 15.7169C9.73681 15.9229 9.65504 16.1715 9.65504 16.4392C9.65504 16.7057 9.73604 16.9533 9.87475 17.1587L8.129 17.1577C6.16834 17.1577 4.57892 15.5724 4.57892 13.6168C4.57892 11.6612 6.16834 10.0759 8.12902 10.0759L8.20589 10.0759C8.45871 7.62451 10.1856 5.62389 13.2322 5.62389ZM10.346 2.73071C11.9005 2.73071 13.2779 3.5145 14.0961 4.71328C13.8171 4.6796 13.5288 4.66235 13.2322 4.66235C12.8532 4.66235 12.4878 4.69031 12.1374 4.74443C11.6294 4.38362 11.0093 4.17302 10.346 4.17302C8.83946 4.17302 7.55568 5.25941 7.29852 6.72716L7.22882 7.12497C7.14822 7.585 6.74872 7.92059 6.28168 7.92057L5.80952 7.92055C4.86316 7.92055 4.09599 8.68772 4.09599 9.63407C4.09599 10.1058 4.28664 10.533 4.59508 10.8429C4.2923 11.2283 4.0521 11.6652 3.8883 12.1383C3.13795 11.5617 2.65369 10.6544 2.65369 9.63407C2.65369 7.95126 3.97083 6.57608 5.63044 6.48324L5.87786 6.47825C6.25208 4.34236 8.11686 2.73071 10.346 2.73071Z" fill="#212121"/>
</svg>
