<svg width="24" height="24" viewBox="0 0 24 24" fill="none" xmlns="http://www.w3.org/2000/svg">
<path d="M12.5289 2.97091C12.5289 2.57263 12.206 2.24976 11.8077 2.24976C11.4094 2.24976 11.0865 2.57263 11.0865 2.97091V4.41322C11.0865 4.8115 11.4094 5.13437 11.8077 5.13437C12.206 5.13437 12.5289 4.8115 12.5289 4.41322V2.97091ZM5.68851 5.20685C5.40688 4.92522 4.95027 4.92522 4.66864 5.20685C4.38701 5.48848 4.38701 5.94509 4.66864 6.22672L5.68851 7.24658C5.97014 7.52821 6.42675 7.52821 6.70837 7.24658C6.99 6.96495 6.99 6.50834 6.70837 6.22672L5.68851 5.20685ZM18.9468 6.22672C19.2284 5.94509 19.2284 5.48848 18.9468 5.20685C18.6651 4.92522 18.2085 4.92522 17.9269 5.20685L16.907 6.22672C16.6254 6.50834 16.6254 6.96495 16.907 7.24658C17.1887 7.52821 17.6453 7.52821 17.9269 7.24658L18.9468 6.22672ZM2.4327 11.6248C2.03442 11.6248 1.71155 11.9476 1.71155 12.3459C1.71155 12.7442 2.03442 13.0671 2.4327 13.0671H3.87501C4.27329 13.0671 4.59616 12.7442 4.59616 12.3459C4.59616 11.9476 4.27329 11.6248 3.87501 11.6248H2.4327ZM19.7404 11.6248C19.3421 11.6248 19.0192 11.9476 19.0192 12.3459C19.0192 12.7442 19.3421 13.0671 19.7404 13.0671H21.1827C21.581 13.0671 21.9039 12.7442 21.9039 12.3459C21.9039 11.9476 21.581 11.6248 21.1827 11.6248H19.7404ZM6.70837 18.4651C6.99 18.1835 6.99 17.7269 6.70837 17.4452C6.42675 17.1636 5.97014 17.1636 5.68851 17.4452L4.66864 18.4651C4.38702 18.7467 4.38701 19.2033 4.66864 19.485C4.95027 19.7666 5.40688 19.7666 5.68851 19.485L6.70837 18.4651ZM17.9269 17.4452C17.6453 17.1636 17.1887 17.1636 16.907 17.4452C16.6254 17.7269 16.6254 18.1835 16.907 18.4651L17.9269 19.485C18.2085 19.7666 18.6651 19.7666 18.9468 19.485C19.2284 19.2033 19.2284 18.7467 18.9468 18.4651L17.9269 17.4452ZM12.5289 20.2786C12.5289 19.8803 12.206 19.5574 11.8077 19.5574C11.4094 19.5574 11.0865 19.8803 11.0865 20.2786V21.7209C11.0865 22.1192 11.4094 22.4421 11.8077 22.4421C12.206 22.4421 12.5289 22.1192 12.5289 21.7209V20.2786ZM11.8077 6.57668C8.62144 6.57668 6.03847 9.15965 6.03847 12.3459C6.03847 15.5322 8.62144 18.1151 11.8077 18.1151C14.994 18.1151 17.5769 15.5322 17.5769 12.3459C17.5769 9.15965 14.994 6.57668 11.8077 6.57668ZM7.48078 12.3459C7.48078 9.95622 9.41801 8.01899 11.8077 8.01899C14.1974 8.01899 16.1346 9.95622 16.1346 12.3459C16.1346 14.7356 14.1974 16.6728 11.8077 16.6728C9.41801 16.6728 7.48078 14.7356 7.48078 12.3459Z" fill="#212121"/>
</svg>
