<svg width="24" height="24" viewBox="0 0 24 24" fill="none" xmlns="http://www.w3.org/2000/svg">
<path d="M12.452 2.97091C12.452 2.57263 12.1291 2.24976 11.7308 2.24976C11.3325 2.24976 11.0096 2.57263 11.0096 2.97091V4.41322C11.0096 4.8115 11.3325 5.13437 11.7308 5.13437C12.1291 5.13437 12.452 4.8115 12.452 4.41322V2.97091ZM5.6116 5.20685C5.32998 4.92522 4.87337 4.92522 4.59174 5.20685C4.31011 5.48848 4.31011 5.94509 4.59174 6.22672L5.6116 7.24658C5.89323 7.52821 6.34984 7.52821 6.63147 7.24658C6.9131 6.96495 6.9131 6.50834 6.63147 6.22672L5.6116 5.20685ZM18.8699 6.22672C19.1515 5.94509 19.1515 5.48848 18.8699 5.20685C18.5882 4.92522 18.1316 4.92522 17.85 5.20685L16.8301 6.22672C16.5485 6.50834 16.5485 6.96495 16.8301 7.24658C17.1118 7.52821 17.5684 7.52821 17.85 7.24658L18.8699 6.22672ZM2.3558 11.6248C1.95752 11.6248 1.63464 11.9476 1.63464 12.3459C1.63464 12.7442 1.95752 13.0671 2.3558 13.0671H3.79811C4.19639 13.0671 4.51926 12.7442 4.51926 12.3459C4.51926 11.9476 4.19639 11.6248 3.79811 11.6248H2.3558ZM19.6635 11.6248C19.2652 11.6248 18.9423 11.9476 18.9423 12.3459C18.9423 12.7442 19.2652 13.0671 19.6635 13.0671H21.1058C21.5041 13.0671 21.827 12.7442 21.827 12.3459C21.827 11.9476 21.5041 11.6248 21.1058 11.6248H19.6635ZM6.63147 18.4651C6.9131 18.1835 6.9131 17.7269 6.63147 17.4452C6.34984 17.1636 5.89323 17.1636 5.6116 17.4452L4.59174 18.4651C4.31011 18.7467 4.31011 19.2033 4.59174 19.485C4.87337 19.7666 5.32998 19.7666 5.6116 19.485L6.63147 18.4651ZM17.85 17.4452C17.5684 17.1636 17.1118 17.1636 16.8301 17.4452C16.5485 17.7269 16.5485 18.1835 16.8301 18.4651L17.85 19.485C18.1316 19.7666 18.5882 19.7666 18.8699 19.485C19.1515 19.2033 19.1515 18.7467 18.8699 18.4651L17.85 17.4452ZM12.452 20.2786C12.452 19.8803 12.1291 19.5574 11.7308 19.5574C11.3325 19.5574 11.0096 19.8803 11.0096 20.2786V21.7209C11.0096 22.1192 11.3325 22.4421 11.7308 22.4421C12.1291 22.4421 12.452 22.1192 12.452 21.7209V20.2786ZM11.7308 6.57668C8.54454 6.57668 5.96157 9.15965 5.96157 12.3459C5.96157 15.5322 8.54454 18.1151 11.7308 18.1151C14.9171 18.1151 17.5 15.5322 17.5 12.3459C17.5 9.15965 14.9171 6.57668 11.7308 6.57668ZM7.40387 12.3459C7.40387 9.95622 9.3411 8.01899 11.7308 8.01899C14.1205 8.01899 16.0577 9.95622 16.0577 12.3459C16.0577 14.7356 14.1205 16.6728 11.7308 16.6728C9.3411 16.6728 7.40387 14.7356 7.40387 12.3459Z" fill="#212121"/>
</svg>
