<svg width="24" height="24" viewBox="0 0 24 24" fill="none" xmlns="http://www.w3.org/2000/svg">
<g clip-path="url(#clip0_1947_591)">
<path d="M15.7165 14.715C13.0422 14.715 7.70371 16.0471 7.70371 18.7214V20.7246H23.7293V18.7214C23.7293 16.0471 18.3908 14.715 15.7165 14.715ZM6.7021 10.7086V7.70378H4.6989V10.7086H1.69409V12.7118H4.6989V15.7166H6.7021V12.7118H9.70691V10.7086M15.7165 12.7118C16.7791 12.7118 17.7981 12.2897 18.5495 11.5383C19.3008 10.787 19.7229 9.76795 19.7229 8.70538C19.7229 7.64282 19.3008 6.62377 18.5495 5.87242C17.7981 5.12108 16.7791 4.69897 15.7165 4.69897C14.654 4.69897 13.6349 5.12108 12.8836 5.87242C12.1322 6.62377 11.7101 7.64282 11.7101 8.70538C11.7101 9.76795 12.1322 10.787 12.8836 11.5383C13.6349 12.2897 14.654 12.7118 15.7165 12.7118Z" fill="#699BF7"/>
</g>
<defs>
<clipPath id="clip0_1947_591">
<rect width="23.0769" height="23.0769" fill="white" transform="translate(0.692505 0.692139)"/>
</clipPath>
</defs>
</svg>
