<svg width="29" height="27" viewBox="0 0 29 27" fill="none" xmlns="http://www.w3.org/2000/svg">
<path d="M22.1312 12.0418C22.6936 12.1801 23.229 12.3679 23.7375 12.6051C24.2461 12.8423 24.7785 13.203 25.3349 13.6873C25.8913 14.1715 26.3669 14.7423 26.7618 15.3995C27.1566 16.0567 27.4857 16.9066 27.7489 17.9493C28.0121 18.9919 28.1438 20.1606 28.1438 21.4552C28.1438 22.9772 27.5455 24.2793 26.349 25.3615C25.1524 26.4436 23.7106 26.9847 22.0235 26.9847H6.69589C5.00878 26.9847 3.56696 26.4436 2.37042 25.3615C1.17389 24.2793 0.575623 22.9772 0.575623 21.4552C0.575623 20.1606 0.707241 18.9919 0.970479 17.9493C1.23372 16.9066 1.56276 16.0567 1.95762 15.3995C2.35248 14.7423 2.8281 14.1715 3.38449 13.6873C3.94087 13.203 4.47333 12.8423 4.98186 12.6051C5.49039 12.3679 6.02584 12.1801 6.58821 12.0418C5.64294 10.8064 5.17031 9.46231 5.17031 8.00952C5.17031 6.98169 5.41261 6.00081 5.89721 5.06688C6.3818 4.13294 7.03691 3.32501 7.86251 2.64309C8.68812 1.96117 9.66629 1.42008 10.797 1.01982C11.9277 0.619563 13.1153 0.419434 14.3597 0.419434C15.6041 0.419434 16.7917 0.619563 17.9224 1.01982C19.0531 1.42008 20.0313 1.96117 20.8569 2.64309C21.6825 3.32501 22.3376 4.13294 22.8222 5.06688C23.3068 6.00081 23.5491 6.98169 23.5491 8.00952C23.5491 9.46231 23.0764 10.8064 22.1312 12.0418ZM14.3597 2.31695C12.4572 2.31695 10.8329 2.87287 9.48681 3.9847C8.14071 5.09653 7.46766 6.43813 7.46766 8.00952C7.46766 9.5809 8.14071 10.9225 9.48681 12.0343C10.8329 13.1462 12.4572 13.7021 14.3597 13.7021C16.2622 13.7021 17.8865 13.1462 19.2326 12.0343C20.5787 10.9225 21.2517 9.5809 21.2517 8.00952C21.2517 6.43813 20.5787 5.09653 19.2326 3.9847C17.8865 2.87287 16.2622 2.31695 14.3597 2.31695ZM22.0235 25.0872C23.0764 25.0872 23.9768 24.7339 24.7247 24.0273C25.4725 23.3206 25.8464 22.4633 25.8464 21.4552C25.8464 19.0932 25.3768 17.2303 24.4375 15.8664C23.4982 14.5026 22.1491 13.7861 20.3902 13.7169C18.6553 14.972 16.6451 15.5996 14.3597 15.5996C12.0743 15.5996 10.0641 14.972 8.32916 13.7169C6.57026 13.7861 5.22117 14.5026 4.28189 15.8664C3.34261 17.2303 2.87297 19.0932 2.87297 21.4552C2.87297 22.4633 3.24688 23.3206 3.99472 24.0273C4.74255 24.7339 5.64294 25.0872 6.69589 25.0872H22.0235Z" fill="#CCCCCC"/>
</svg>
